<svg width="57" height="25" viewBox="0 0 57 25" fill="none" xmlns="http://www.w3.org/2000/svg">
<path d="M57 12.4996C57 19.4033 51.2675 25 44.1963 25C40.9339 25 37.9558 23.808 35.6945 21.8463L34.6235 20.8008L20.4175 6.8025C18.3925 4.77647 15.8824 3.22264 12.8029 3.22264C7.55566 3.22264 3.30084 7.37589 3.30084 12.4996C3.30084 17.6233 7.55566 21.7766 12.8029 21.7766C15.4937 21.7766 17.9238 20.685 19.6519 18.9296C19.4038 18.416 19.2649 17.8418 19.2649 17.2362C19.2649 15.9752 19.8671 14.853 20.803 14.1255L20.8054 14.1232L22.3035 12.6598L22.8774 12.0995L24.151 13.3428L24.3347 13.5222L25.4284 14.59L28.606 17.6923L26.4209 19.8257C25.675 20.6727 24.5687 21.2093 23.3344 21.2093C22.9237 21.2093 22.5272 21.1503 22.1535 21.0392C19.8168 23.4768 16.4924 25 12.8029 25C5.73251 25 0 19.4033 0 12.4996C0 5.59593 5.73251 0 12.8029 0C16.2467 0 19.3724 1.32692 21.6738 3.48634L36.5456 18.1638C38.6907 20.3171 41.0957 21.7896 44.1963 21.7896C49.4153 21.7896 53.645 17.6601 53.645 12.5648C53.645 7.46941 49.4153 3.33993 44.1963 3.33993C42.2514 3.33993 40.4432 3.91408 38.9404 4.89835C39.1233 5.35063 39.2246 5.8443 39.2246 6.36096C39.2246 7.62733 38.6177 8.75571 37.6715 9.48395L36.2323 10.8891L35.6356 10.3065L35.4024 10.0788L35.1409 10.3341C35.1033 10.3341 35.0648 10.3333 35.0271 10.3318C35.0137 10.3816 35.0012 10.4314 34.9894 10.4812L33.3806 12.0519L31.9241 10.63L32.9056 9.67176L33.9459 8.65682L32.7627 7.50084L32.246 8.00524L31.731 8.50811L30.7409 9.47475L29.2844 8.05277L31.0871 6.29197L31.3054 6.07886L31.1146 5.89259L30.5085 5.30003L31.9649 3.87805L31.9728 3.88572C32.7179 2.97274 33.8666 2.38785 35.1551 2.38785C35.5916 2.38785 36.0125 2.45531 36.4066 2.57949C38.5643 0.961273 41.266 0 44.1963 0C51.2675 0 57 5.59593 57 12.4996Z" fill="white"/>
</svg>
