<svg width="19" height="19" viewBox="0 0 19 19" fill="none" xmlns="http://www.w3.org/2000/svg">
<path d="M0 0H3.71836L6.17129 1.98535L8.67246 0H19V7.0248L17.3041 9.53711L19 11.9789V19H8.67246L6.14902 17.1186L3.71836 19H0V11.9789L1.90742 9.43691L0 7.0248V0Z" fill="#D80027"/>
<path d="M3.71836 0V7.0248H0V8.26426L0.912891 9.48887L0 10.7432V11.9826H3.71836V19H4.95781L6.09336 18.024L7.43301 19H8.67246V11.9789H19V10.7395L18.0871 9.48887L19 8.26426V7.0248H8.67246V0H7.43301L6.17871 0.938867L4.95781 0H3.71836Z" fill="#EEEEEE"/>
<path d="M4.95781 0V8.26426H0V10.7395H4.95781V19H7.43301V10.7395H19V8.26426H7.43301V0H4.95781Z" fill="#0052B4"/>
</svg>
