<svg width="19" height="19" viewBox="0 0 19 19" fill="none" xmlns="http://www.w3.org/2000/svg">
<path d="M0 0L0.296875 0.59375L0 1.15039V1.74414L1.1875 4.15625L0 6.53125V7.71875L1.1875 9.5L0 11.2812V12.4688L1.1875 14.8438L0 17.2559V19L0.59375 18.7031L1.15039 19H1.74414L4.15625 17.8125L6.53125 19H7.71875L9.5 17.8125L11.2812 19H12.4688L14.8438 17.8125L17.2559 19H19L18.7031 18.4434L19 17.8496V17.2559L17.8125 14.8438L19 12.4688V11.2812L17.8125 9.5L19 7.71875V6.53125L17.8125 4.15625L19 1.74414V0L18.4434 0.296875L17.8496 0H17.2559L14.8438 1.1875L12.4688 0H11.2812L9.5 1.1875L7.71875 0H6.53125L4.15625 1.1875L1.74414 0H0Z" fill="#EEEEEE"/>
<path d="M1.74414 0L6.53125 4.78711V0H1.74414ZM12.4688 0V4.78711L17.2559 0H12.4688ZM0 1.74414V6.53125H4.78711L0 1.74414ZM19 1.74414L14.2129 6.53125H19V1.74414ZM0 12.4688V17.2559L4.78711 12.4688H0ZM14.2129 12.4688L19 17.2559V12.4688H14.2129ZM12.4688 14.2129V19H17.2559L12.4688 14.2129ZM6.53125 14.2129L1.74414 19H6.53125V14.2129Z" fill="#0052B4"/>
<path d="M7.71875 0V7.71875H0V11.2812H7.71875V19H11.2812V11.2812H19V7.71875H11.2812V0H7.71875Z" fill="#D80027"/>
<path d="M12.4688 12.4688L19 19V17.8496L13.6191 12.4688H12.4688ZM12.4688 6.53125L19 0H17.8496L12.4688 5.38086V6.53125ZM6.53125 6.53125L0 0V1.15039L5.38086 6.53125H6.53125ZM6.53125 12.4688L0 19H1.15039L6.53125 13.6191V12.4688Z" fill="#D80027"/>
</svg>
